<svg width="22" height="23" viewBox="0 0 22 23" fill="none" xmlns="http://www.w3.org/2000/svg">
<path d="M9.43713 11.0395C9.43713 12.001 10.2114 12.7808 11.1651 12.7808C11.8352 12.7808 12.4094 12.3927 12.6961 11.8311L12.7009 11.8355L15.8554 6.10075L10.3177 9.52265L10.3229 9.52792C9.79702 9.82691 9.43713 10.388 9.43713 11.0395ZM18.1266 2.74252C16.356 1.18304 14.0681 0.187288 11.454 0.0384521V2.68456C13.6324 2.82418 14.916 3.52138 16.2048 4.60933L18.1266 2.74252ZM19.3601 10.2146H21.983C21.807 7.58033 20.7844 5.41585 19.1967 3.64212L17.3411 5.50058C18.4591 6.79137 19.1945 8.45841 19.3601 10.2146Z" fill="#6984F0"/>
<path d="M19.3723 11.5316C19.0948 15.9221 15.485 19.4041 11.0758 19.4041C6.48576 19.4041 2.61417 15.6529 2.61417 11.0281C2.61417 6.62534 6.22565 3.02299 10.1469 2.68493V0.0388184C4.48287 0.380833 0 5.18308 0 11.0395C0 17.1171 4.97564 22.0384 11.007 22.0384C16.8592 22.0384 21.7207 17.2392 22 11.5316H19.3723Z" fill="#6984F0"/>
</svg>
